/* XPM */
static char * wall_xpm[] = {
"64 64 691 2",
"  	c #7C4D1D",
". 	c #865526",
"+ 	c #835322",
"@ 	c #895829",
"# 	c #8D5B2C",
"$ 	c #835223",
"% 	c #7F501F",
"& 	c #7F4F1F",
"* 	c #805020",
"= 	c #7A4B1B",
"- 	c #946239",
"; 	c #915E31",
"> 	c #8E5C2F",
", 	c #936035",
"' 	c #8A592A",
") 	c #865626",
"! 	c #8B592B",
"~ 	c #865525",
"{ 	c #855424",
"] 	c #815224",
"^ 	c #7B4E23",
"/ 	c #794A1A",
"( 	c #89592A",
"_ 	c #89592C",
": 	c #805121",
"< 	c #8F5E32",
"[ 	c #865527",
"} 	c #875728",
"| 	c #855526",
"1 	c #815222",
"2 	c #8B5A2D",
"3 	c #89582A",
"4 	c #8D5B2E",
"5 	c #8B5A2C",
"6 	c #825222",
"7 	c #835325",
"8 	c #774D27",
"9 	c #875727",
"0 	c #905E31",
"a 	c #8C5A2C",
"b 	c #815121",
"c 	c #845424",
"d 	c #875628",
"e 	c #8F5D30",
"f 	c #8A592B",
"g 	c #845325",
"h 	c #845323",
"i 	c #855524",
"j 	c #875627",
"k 	c #7C4F24",
"l 	c #83552D",
"m 	c #815120",
"n 	c #825121",
"o 	c #80501F",
"p 	c #7E4F1E",
"q 	c #8C5B2E",
"r 	c #8C5A2E",
"s 	c #835323",
"t 	c #8D5D33",
"u 	c #8D5B2D",
"v 	c #8C5A2D",
"w 	c #8B5A2B",
"x 	c #895729",
"y 	c #905D30",
"z 	c #865628",
"A 	c #7D5128",
"B 	c #815226",
"C 	c #84552B",
"D 	c #825427",
"E 	c #805226",
"F 	c #87582E",
"G 	c #8F5E35",
"H 	c #89592E",
"I 	c #84562B",
"J 	c #8C5D33",
"K 	c #8D5C32",
"L 	c #8A5B30",
"M 	c #88592F",
"N 	c #8E5D33",
"O 	c #8F5E33",
"P 	c #89592F",
"Q 	c #784D27",
"R 	c #815122",
"S 	c #8A582A",
"T 	c #835222",
"U 	c #885728",
"V 	c #835324",
"W 	c #855425",
"X 	c #835224",
"Y 	c #73471D",
"Z 	c #815329",
"` 	c #7F4F1E",
" .	c #815221",
"..	c #825223",
"+.	c #8E5C30",
"@.	c #845425",
"#.	c #855525",
"$.	c #7C4D1C",
"%.	c #8E5E35",
"&.	c #915E32",
"*.	c #885729",
"=.	c #8A5829",
"-.	c #8B592C",
";.	c #805122",
">.	c #7E4E1D",
",.	c #825221",
"'.	c #7E4F1D",
").	c #805120",
"!.	c #8B592A",
"~.	c #925F33",
"{.	c #8E5D2F",
"].	c #774C27",
"^.	c #7B4F26",
"/.	c #83562E",
"(.	c #7E5128",
"_.	c #7F5229",
":.	c #7F522A",
"<.	c #7C4F27",
"[.	c #774C23",
"}.	c #784D22",
"|.	c #784C22",
"1.	c #794E24",
"2.	c #784D23",
"3.	c #81542C",
"4.	c #81542B",
"5.	c #80532A",
"6.	c #794E26",
"7.	c #794D24",
"8.	c #724822",
"9.	c #7F5126",
"0.	c #7D4E1E",
"a.	c #7B4C1B",
"b.	c #7A4C1B",
"c.	c #8D5D34",
"d.	c #865627",
"e.	c #8F5E31",
"f.	c #805223",
"g.	c #794D21",
"h.	c #7C4D1B",
"i.	c #7A4B1A",
"j.	c #7D4E1D",
"k.	c #8C5B2D",
"l.	c #946135",
"m.	c #8D5C2F",
"n.	c #734A24",
"o.	c #8E5D30",
"p.	c #926035",
"q.	c #905E32",
"r.	c #8A592C",
"s.	c #89582B",
"t.	c #70451B",
"u.	c #7B4B1A",
"v.	c #8C5B2C",
"w.	c #7B4F29",
"x.	c #7A4F2A",
"y.	c #774D28",
"z.	c #7A4E29",
"A.	c #744B25",
"B.	c #764C27",
"C.	c #774C26",
"D.	c #734923",
"E.	c #764B24",
"F.	c #7A4F29",
"G.	c #764C26",
"H.	c #7C4F23",
"I.	c #7F4F1D",
"J.	c #7D4D1C",
"K.	c #905D31",
"L.	c #926034",
"M.	c #905E30",
"N.	c #6E4317",
"O.	c #784B21",
"P.	c #7E4E1C",
"Q.	c #875626",
"R.	c #8F5C2F",
"S.	c #83542A",
"T.	c #805021",
"U.	c #7C4C1C",
"V.	c #784A1A",
"W.	c #784A1B",
"X.	c #7F501E",
"Y.	c #895728",
"Z.	c #8A582B",
"`.	c #865625",
" +	c #825323",
".+	c #885628",
"++	c #8E5C2E",
"@+	c #704519",
"#+	c #7A4D22",
"$+	c #80501E",
"%+	c #794B19",
"&+	c #764817",
"*+	c #764919",
"=+	c #794C21",
"-+	c #81511F",
";+	c #794A19",
">+	c #885727",
",+	c #754B24",
"'+	c #88582A",
")+	c #7E4F1F",
"!+	c #7B4C1C",
"~+	c #754717",
"{+	c #6B4217",
"]+	c #7D4F24",
"^+	c #8D5C2E",
"/+	c #84552A",
"(+	c #845322",
"_+	c #7C4C1B",
":+	c #794B1A",
"<+	c #7A4C1D",
"[+	c #845324",
"}+	c #734A25",
"|+	c #80532E",
"1+	c #7C502B",
"2+	c #7F522D",
"3+	c #7F532E",
"4+	c #7E512C",
"5+	c #7C502A",
"6+	c #794F28",
"7+	c #794E28",
"8+	c #7E522D",
"9+	c #7B502B",
"0+	c #7E512D",
"a+	c #794E2A",
"b+	c #784E29",
"c+	c #734921",
"d+	c #714822",
"e+	c #734922",
"f+	c #6C4521",
"g+	c #784B1F",
"h+	c #7B4C1A",
"i+	c #825220",
"j+	c #77491A",
"k+	c #8D5C30",
"l+	c #8E5E37",
"m+	c #7F5020",
"n+	c #6F4419",
"o+	c #8F5E30",
"p+	c #86572E",
"q+	c #7D4E1C",
"r+	c #794B1B",
"s+	c #7E5126",
"t+	c #875526",
"u+	c #764B25",
"v+	c #8F5D2F",
"w+	c #915F32",
"x+	c #8B5C35",
"y+	c #7D4D1D",
"z+	c #71461A",
"A+	c #7A4D21",
"B+	c #7C4E1E",
"C+	c #7A4E22",
"D+	c #8F5D31",
"E+	c #784918",
"F+	c #885829",
"G+	c #8D5D36",
"H+	c #7E4E1E",
"I+	c #74481D",
"J+	c #7E5125",
"K+	c #83552B",
"L+	c #7D4E1F",
"M+	c #8C5D37",
"N+	c #845423",
"O+	c #764A1F",
"P+	c #815328",
"Q+	c #7A4B19",
"R+	c #784B1C",
"S+	c #7D5126",
"T+	c #784E27",
"U+	c #754A1F",
"V+	c #85572C",
"W+	c #87572A",
"X+	c #86562A",
"Y+	c #855529",
"Z+	c #89592D",
"`+	c #8C5B2F",
" @	c #855527",
".@	c #89582C",
"+@	c #88582B",
"@@	c #88582D",
"#@	c #7C4C1A",
"$@	c #7A4C1C",
"%@	c #7B5029",
"&@	c #80511F",
"*@	c #8B5A2E",
"=@	c #8F5F38",
"-@	c #84562D",
";@	c #835326",
">@	c #825325",
",@	c #81542A",
"'@	c #81532A",
")@	c #86582E",
"!@	c #86572F",
"~@	c #885931",
"{@	c #82542A",
"]@	c #7B4E24",
"^@	c #805228",
"/@	c #85572E",
"(@	c #85562C",
"_@	c #81501F",
":@	c #7D5027",
"<@	c #774918",
"[@	c #895A32",
"}@	c #7C4F25",
"|@	c #7E522C",
"1@	c #7E5127",
"2@	c #86572C",
"3@	c #774916",
"4@	c #915F33",
"5@	c #8C5D36",
"6@	c #75491E",
"7@	c #875830",
"8@	c #804F1F",
"9@	c #936136",
"0@	c #855426",
"a@	c #936135",
"b@	c #8B592D",
"c@	c #92613A",
"d@	c #804F20",
"e@	c #714619",
"f@	c #85562B",
"g@	c #7D4F20",
"h@	c #7A4E23",
"i@	c #916039",
"j@	c #774A1F",
"k@	c #865629",
"l@	c #835425",
"m@	c #8A592D",
"n@	c #845427",
"o@	c #8E5D32",
"p@	c #8A592E",
"q@	c #815124",
"r@	c #7B4D1E",
"s@	c #794B1C",
"t@	c #7B4D1F",
"u@	c #805125",
"v@	c #794D23",
"w@	c #7F5021",
"x@	c #7E4F21",
"y@	c #7E4F20",
"z@	c #7C4D1E",
"A@	c #7C4E1F",
"B@	c #7B4D1D",
"C@	c #8C5B30",
"D@	c #88582C",
"E@	c #845528",
"F@	c #855528",
"G@	c #875629",
"H@	c #90603A",
"I@	c #7F5022",
"J@	c #815223",
"K@	c #72471D",
"L@	c #845527",
"M@	c #805123",
"N@	c #8D5C33",
"O@	c #8B5B32",
"P@	c #87572D",
"Q@	c #895A2F",
"R@	c #8B5B30",
"S@	c #905F35",
"T@	c #8C5B31",
"U@	c #8B5A30",
"V@	c #7C5129",
"W@	c #87582D",
"X@	c #8A5A2F",
"Y@	c #865830",
"Z@	c #905E34",
"`@	c #926138",
" #	c #88592E",
".#	c #8B5A2F",
"+#	c #85562A",
"@#	c #835428",
"##	c #7F5329",
"$#	c #8C5B32",
"%#	c #774D25",
"&#	c #926137",
"*#	c #8D5C31",
"=#	c #86562B",
"-#	c #825328",
";#	c #815227",
">#	c #8C5C32",
",#	c #8B5A31",
"'#	c #895A30",
")#	c #805128",
"!#	c #8A5A31",
"~#	c #936137",
"{#	c #8D5D32",
"]#	c #74481B",
"^#	c #784E26",
"/#	c #8C5A2B",
"(#	c #825122",
"_#	c #936034",
":#	c #946136",
"<#	c #8D5C34",
"[#	c #784C26",
"}#	c #915F34",
"|#	c #70451A",
"1#	c #734A22",
"2#	c #905F36",
"3#	c #926033",
"4#	c #7B4F28",
"5#	c #7A4B1C",
"6#	c #895930",
"7#	c #835630",
"8#	c #81542D",
"9#	c #80532B",
"0#	c #7E522B",
"a#	c #754A20",
"b#	c #774C24",
"c#	c #774C22",
"d#	c #7A4F2B",
"e#	c #7D512A",
"f#	c #895828",
"g#	c #784B1B",
"h#	c #8B5C36",
"i#	c #8E5E38",
"j#	c #875932",
"k#	c #885933",
"l#	c #83562F",
"m#	c #84562F",
"n#	c #885A33",
"o#	c #865832",
"p#	c #885830",
"q#	c #8F5D32",
"r#	c #88572B",
"s#	c #845631",
"t#	c #764A1E",
"u#	c #83552A",
"v#	c #794E27",
"w#	c #936138",
"x#	c #815020",
"y#	c #83542B",
"z#	c #784A18",
"A#	c #794F2A",
"B#	c #845529",
"C#	c #805327",
"D#	c #8B5B31",
"E#	c #754B27",
"F#	c #925F34",
"G#	c #915E33",
"H#	c #784A19",
"I#	c #7B4C1D",
"J#	c #7A4A19",
"K#	c #855423",
"L#	c #815327",
"M#	c #73471A",
"N#	c #8C5B33",
"O#	c #87572E",
"P#	c #86572D",
"Q#	c #88582E",
"R#	c #8A5A30",
"S#	c #8E5C33",
"T#	c #885930",
"U#	c #8C5C33",
"V#	c #835221",
"W#	c #845426",
"X#	c #784917",
"Y#	c #7B4D1B",
"Z#	c #73471C",
"`#	c #8E5C2D",
" $	c #7A4F28",
".$	c #895929",
"+$	c #7C4F26",
"@$	c #7F4F20",
"#$	c #805227",
"$$	c #825428",
"%$	c #82542B",
"&$	c #88572A",
"*$	c #7F522B",
"=$	c #74481C",
"-$	c #8E5B2D",
";$	c #835429",
">$	c #885828",
",$	c #7C5029",
"'$	c #825120",
")$	c #87582F",
"!$	c #956237",
"~$	c #7D4F1F",
"{$	c #714519",
"]$	c #71461B",
"^$	c #74491C",
"/$	c #764B22",
"($	c #764B1F",
"_$	c #7B4E22",
":$	c #774B20",
"<$	c #7D5026",
"[$	c #7E5228",
"}$	c #74491E",
"|$	c #72471C",
"1$	c #70461A",
"2$	c #6F4418",
"3$	c #794D25",
"4$	c #7F5125",
"5$	c #835529",
"6$	c #7F5227",
"7$	c #7F5127",
"8$	c #7D4F25",
"9$	c #7D4D1E",
"0$	c #7E5129",
"a$	c #885627",
"b$	c #89572A",
"c$	c #825225",
"d$	c #84562E",
"e$	c #805229",
"f$	c #82542C",
"g$	c #84562C",
"h$	c #865524",
"i$	c #744B24",
"j$	c #7D4E1B",
"k$	c #6D4318",
"l$	c #84552C",
"m$	c #88572C",
"n$	c #916036",
"o$	c #86572A",
"p$	c #815220",
"q$	c #714720",
"r$	c #74491F",
"s$	c #774B21",
"t$	c #774B22",
"u$	c #6F441B",
"v$	c #71471C",
"w$	c #72481E",
"x$	c #73481D",
"y$	c #73491F",
"z$	c #70461B",
"A$	c #71471D",
"B$	c #6F451B",
"C$	c #73481F",
"D$	c #6B431E",
"E$	c #925F32",
"F$	c #87572B",
"G$	c #794E29",
"H$	c #986439",
"I$	c #986438",
"J$	c #9D683D",
"K$	c #986437",
"L$	c #976339",
"M$	c #A16B3F",
"N$	c #976439",
"O$	c #895931",
"P$	c #855427",
"Q$	c #926038",
"R$	c #855629",
"S$	c #7D512B",
"T$	c #966234",
"U$	c #8E5D31",
"V$	c #926139",
"W$	c #875729",
"X$	c #805022",
"Y$	c #784D26",
"Z$	c #905F33",
"`$	c #8A5828",
" %	c #976336",
".%	c #794C22",
"+%	c #85562D",
"@%	c #946236",
"#%	c #8E5E34",
"$%	c #8E5D2E",
"%%	c #7F532F",
"&%	c #80532C",
"*%	c #83552E",
"=%	c #80522B",
"-%	c #82552E",
";%	c #7E5026",
">%	c #7D4E20",
",%	c #784C21",
"'%	c #8D5A2B",
")%	c #774A1E",
"!%	c #905E35",
"~%	c #815021",
"{%	c #764C25",
"]%	c #976235",
"^%	c #7A4D23",
"/%	c #7C4E24",
"(%	c #754A1E",
"_%	c #794D22",
":%	c #7E5027",
"<%	c #774B1F",
"[%	c #895A31",
"}%	c #794D26",
"|%	c #976334",
"1%	c #88582F",
"2%	c #8A5B33",
"3%	c #8A5B32",
"4%	c #87572F",
"5%	c #80522A",
"6%	c #794C23",
"7%	c #784B22",
"8%	c #754B25",
"9%	c #986337",
"0%	c #946238",
"a%	c #946133",
"b%	c #996538",
"c%	c #966235",
"d%	c #9A6638",
"e%	c #724820",
"f%	c #7B4D1C",
"g%	c #794A18",
"h%	c #9F6A3E",
"i%	c #8D5B2F",
"j%	c #8E5B2E",
"k%	c #976335",
"l%	c #73471B",
"m%	c #8A5A32",
"n%	c #794C1F",
"o%	c #704721",
"p%	c #936033",
"q%	c #8F5C2D",
"r%	c #744920",
"s%	c #70471E",
"t%	c #70461C",
"u%	c #72481D",
"v%	c #6D441A",
"w%	c #6E4622",
"x%	c #7C5027",
"y%	c #764B20",
"z%	c #72471F",
"A%	c #6D451E",
"B%	c #7C5028",
"C%	c #7A4E25",
"D%	c #7A4E26",
"E%	c #794C24",
"F%	c #754A21",
"G%	c #7F512A",
"H%	c #7C5026",
"I%	c #71461C",
"J%	c #73481E",
"K%	c #764B21",
"L%	c #764A20",
"M%	c #7A4E27",
"N%	c #7B4F25",
"O%	c #8D5D35",
"P%	c #976337",
"Q%	c #976338",
"R%	c #9A663B",
"S%	c #946035",
"T%	c #8E5C31",
"U%	c #8C5C30",
"V%	c #80542E",
"W%	c #9B663B",
"X%	c #956337",
"Y%	c #966337",
"Z%	c #8A5929",
"`%	c #784919",
" &	c #7E4E1F",
".&	c #7B4F27",
"+&	c #805329",
"@&	c #7B4C1E",
"#&	c #7B4F2A",
"$&	c #7B4B1B",
"%&	c #905D2F",
"&&	c #7A4C1A",
"*&	c #8B5B33",
"=&	c #784B20",
"-&	c #7D4D1B",
";&	c #895727",
">&	c #724924",
",&	c #7A4E24",
"'&	c #99653B",
")&	c #81532B",
"!&	c #744A25",
"~&	c #75491F",
"{&	c #784D25",
"]&	c #7D5127",
"^&	c #744921",
"/&	c #7A4D24",
"(&	c #875832",
"_&	c #7C4F28",
":&	c #754920",
"<&	c #764A21",
"[&	c #73491E",
"}&	c #754A22",
"|&	c #72481F",
"1&	c #6E451B",
"2&	c #754B28",
"3&	c #7C4E1D",
"4&	c #8B5A32",
"5&	c #9B673C",
"6&	c #8F5D33",
"7&	c #996539",
"8&	c #915E34",
"9&	c #966338",
"0&	c #82552F",
"a&	c #724821",
"b&	c #704518",
"c&	c #794D27",
"d&	c #7D5025",
"e&	c #8A5B35",
"f&	c #7C4E22",
"g&	c #825322",
"h&	c #875726",
"  . + + @ # $ % & * = - ; > , . ' ) ! > ~ { ] ^ / $ ( _ : < [ } | ) 1 2 3 4 5 6 7 8 9 0 a b + @ ' c d a e f { 6 g h i j k l j m ",
"n o p | . q r c s { * t u v w @ ' x e y q > z A B C D E F G H I J K L M t N t O P Q R > S o T $ j U V W ! 3 ( ) R & 9 X Y Z p * ",
"` 6 b  .@ ..+.@.6 #.$.%.&.*.h =.U d ! -.j ' ;.^ >.,.'.).{ u j U 5 u e !.~.u *.!.{.].^./.(._.:.<.[.}.|.1.2.3.4.5.<.6.A 7.8.9.0.a.",
").` h c ' j d . { b b.c.0 . *.2 V s d.2 e.j f.g.h.i.j.).h > k.U !.u l.*.0 m.5 > q n.6 o.e 6 * ! -.p.q.k.k.m.r.m.4 q.s.V t.9.i.u.",
"& $.. . } c v ~.v.v ..w.x.y.z.A.B.C.D.E.F.G.n.H.>.I.J.{ W V 4 #.| 0 w h ' ~ S ! ..D.,.U *.j ,.=.K.L.e @ 5 > K.@ S M.d h.N.O.h.P.",
"= + + Q.c w &.> R.a #.S.p 1 '.0.T.U.* * 0.V.W.^ X.` a.% ,.x Y.| . ~.Z.' b `.U h 6 G.b ~ . '  +b .+' { { 3 ++3 J.$.6 b h.@+#+* a.",
"+ m o 6 h Z.s.v ~.# o.E m a.'.$+T 6 ,.P.%+&+*+=+>.-+;+>.6 k.> U >+5 ' c $+j b ! r.,+m s @.q > *.3 d 9 '+R 5 '+)+p b !+~+{+]+h '.",
"& h s c 4 ^+&.e e u o./+p J.a.(+& '.` ` _+:+<+^ X.& j.& W > &.@ 6 h #.@ [+m m d.| }+|+1+2+3+4+5+6+7+8+9+0+1+a+b+B.c+d+e+f+g+p $.",
"0.~ ` c 3 c k.3 ' @ } S.` I.$+m o a.h+i+:+j.j+k $+'.` ` { u k.a 4 c v *.k.~ #.b 6 8 k+b 6 f e ^+q.q f [ ( @.l+| R m+0.0.n+g.a.h.",
",.p 6 V + U o+u v a d p+o ;+` m m q+i.o >.h.r+s+n o 6 . . . Q.! @ 3 k.! t+4 . j   u+S 2 U j v+^+3 ++w+5 y | x+V [+{ % y+z+A+i.6 ",
"(+*.W W j @ S e v+! q P * J.p % >.p !+` b.` B+C+o h h W . d b m ) D+@ -.&.Q.X.% E+D.F+m.> D+S 5 ! ~ w ++e q G+[ 5 | ..H+I+J+a.-+",
"i+=.@ i f > u +.+.' f K+a.J.y+j.h.>.;+h.* o L+C+X.s } . ~ ).` c 4 3 q 0 f c p ;+;+z.d.#.3 u I.c x o { #.@ f M+u r.U N+@.O+P+s m ",
"h . V { w ) u =.9 !.3 S.& o a.b Q+_+a.T )+b.R+S+* a.i+j.` m $.T ` N+5 s $ c % >.b T+@ W U ++6 m j h & [+H+b M+U ~ @.b 6 U+V+c d.",
"W+_ X+Y+r.Z+`+ @.@+@@@I h.)+* i.h.#@).m J.$.$@(.p #@q+X.h.c b o j @.o R * 6 * o ..%@D+o.' a . &@) j ,.,.+ *@=@) ..b m o H.-@;@>@",
",@'@'@(.)@!@~@{@]@^@/@(@6 % _@o p r+X._+q+>.  :@& 0.$.;+` b { ) p H+` p a.#.,.<@$.7+*.S . k.c ~ * h @ j > v [@| 0.$.6 $ }@|@1@(.",
"6 v 5 f e @ 5 W U U ^+2@h ` o * $.$.& $.`   r+_.h c J.y+J.m U ~ b J.j.I.J.-+a.3@:+8 d.) 4@v+*.q c #.! d.v+q.5@W $ p s W 6@7@@ 8@",
"b * b i ~ U 9@3 > ) z Z ` T p ` q+u.V N+6 h+m+^@. b ;+a.J.U.>.h W 0@j.i.>.X.j.E+/ G.@ 0 e 0 S v @.#.~ r.a@b@c@a ' d@. R e@f@D+W ",
"j 0@c c N+U v++.j 5 ..s+)+. o ` ` $.N+c ' q+g@h@n b._+>.,.j.` 6 W c ` j.$.& '.>.p G.4 4 d 0 4 @ {.4 o.0 > -.i@^+U & b.` j@C @ s ",
"k@*@2 l@m@.@n@W+o@p@q@s+L+7 m+;@r@W.W.s@t@  u@v@<+w@x@s@<+y@z@L+A@B@L+r@;.z@<+;.r@].C@m@D@k@s.+@Z+E@+@F@G@;@H@7 Y+t@I@J@K@4.L@M@",
"N@O@P@~@Q@P O@R@S@T@U@N V@Z+W@X@W@Y@Z@O `@N Q@ #P T@.#@@+#P+@#h@##R@H W@$#%#S@&#*#N@P@/+=#-#@#W@2@;#*#>#,#O@x+'#(@)#-#=#f@!#~#{#",
"U d . 2@W 6 > 4 e 3 d k.z.3 $ a c X@u > ' e &.f j >+[+N+m i.j.]#J+m T o | ^#u v+/#a @.$.* J.J.U #.(#.+c U M@N@h % % p ` { ! _#:#",
"6 !.S <#S a k.U > ' ' s.[#@ w ' }#P /#a [ 3 ++0 U h o o q+i.>.|#E p o m V 1#F+v+' ++5 b _@;+c b ! F+6 % ,.: t o o X.m 6 + !.; s ",
"s | z 2#0 m.U j *.@ @ d z.. W 5 o.N @ #.m N+{.3##.h o $.= h.a.@+/++ L.d d 4#*., &.U d m m j 3 v e e [ P.J.5#6#c 6 V F+{ *.S d d ",
"7#8#9#0#a#b#7._.(.<.^.c#d#' | >+' T@{ { ++j 0 *.| h ,.i.a.` $+z+P+s e 3#m.e#0 j k.f#V [+c 3 v+q.S *.6 &@j.g#h#i#i#j#k#l#m#3.n#o#",
"0.` 6 p#,#m@D+q.q#C@r#4@s#[ s . 3 (@+ { x U d.. h 6 X.$.$.i.I.t#u#U -.> *.v#D+M.f -+j.6 m s s W m % ` P.H+w@w#w+[+s H+n x#b ..0.",
"p j.  y#` P.j.$.z#J.0.s A#| v r.5 B#b $.j k.a *.c >.&@).% q+` n+C#U t+) j Q 2 y U ~ j 5 N+6 q+i.a.a.Q+h.P.B+D#6   % $.{ b ` >.a.",
"` m i.C o ` I.;+E+j.* L+E#@.@ F#G#f@>.* o )+#.j x#J.m o b o i.e@P+*.d.* ).F.s.m.f c 7 ;.s b % H#j.!+!+& 0.I#R@,.. ,.,.>+J.$.J#'.",
"+ K#` u#  & o $.  $.o * ].j 4@L.D+L#-+a._+` s m+j.` % q+` ` I.M#9#2@N#c.6#P O#p+M P#!#Q#O@R#S#U@U@T#F U#$#K+P V#c j #.,.q+#@'.I.",
"* -+$.-#$+X.i.$+z#` & m G.o.f j W#I % $.q+o m ` h.q+u.X#q+>.Y#Z#(@(+[ U ) W 0.H+R ..& j U 4 `#; f ` h 6 y+<+f@Q.h ! c &  .>.$+_@",
"P._+$.C#-+o o I.$.&@h o  $+.q .$7 s+>.0.` o N+W p h+$.m q+>.J.|#+$s s s + $ T.W @$* c a ' U $ j 6 y+o h o z@I s f k.. [+&@$+$+o ",
"h+J.* #$'.a.` ` >.6 * 0.7+v 6 h )+$$a.b.p ,.o m b m b >.>.>.q+@+%$d x * n d.$.s ) U w ++j (+b H+j j m * : I#=#s . n n o >.o '.U.",
"p *  +E + X.& j h s >+&$*$v s @$w@#$,.o _@,.J.o s c % o ` m o =$R#[ . @ * j.s U h U w+-$*.#.U e 5 ^+@ f 0@w@/+>.o % >.X.p   i._+",
"$.#.6 ;$. + q a@>$,.u w ,$} U * 0.;$,.6 b ..* T j T p j.J.o b =$c.5 U $ m+s s h % j 0 3 e ++f v w+> K.j x#  ;$` &@` >.$.$+$.J.h+",
"y+& 0.B#[+w q.D+} [+k.3 7+q R #.[ -#b * 9 #.~ { ).H+q+'$` >.6 O+)$3 j c % N+9 >+S 3 q.w+!$q.v U *.f &.a N+~$;#m c m m &@>.'.>.i.",
"{$]$^$/$($5.{@9._$:$<$^ n.R #.@ 0@P+6 ` b s p @.m o m >.& P.i.U+'@s m U ~ d.) @ 4 U 3 e ^+U s * 6 + ) j m L+[$($]$}$|$z+M#|$1$2$",
"K+3$4$]+J+P+5$]+P+6$7$8$T+c c U 9$C >.h.i+0.b ~ ).m '.p &@q+a.|#0$o ' f h T e 4 > e Q.a$3 0 ` X.,.* ) b$f c$d$u#T#%$e${@f$d$g$F ",
"7 }@$.>.U.h$$.` m -+o a.i$V (#Q.W Q#'$o ,.>.m $+p % h.m '.j$_+k$l$..#.v 6 { j a ! 4 5 #.d.*.b 6 c + 3 0 0 m$n$f U s   ;+% j !.. ",
"o$#+j.p$h n ~ 6 m '$i.T.q$r$s$t$7.b#u$K@r$v$v$w$v$x$y$z$A$B$C$D$p+H+V 6 W S 4 j @ -.> U U j 6 | ~ m . K.^+m@t E$a a q ) W s 5 5 ",
"F$t$a.-+'.j.& j * p j.).G$H$l.I$l.~.J$K$L$r.a@L.l.~@M$, I$}#N$O$l$c V #.Y.^+4 @ ! a e Q.W @ k.0 s m *.s U P$Q$> L.u 5 3 s U > w+",
"R$7.o I.-+` &@h $.m h.o S$q#! v+4 v *.0 v ! a >+f ,@T$@ -.5 ! :$%$b ..6 5 ' U 5 #.>+e U c d.U y U$4 a ' ! W#V$o.> ++' f *.f 4 w+",
"W$1@$.j.H+* * * ,.$.H#X$Y$W @.! Z$0 v w+0 `$U . W +$ %a S @ R..%+%~ . b ~ W ! 4 *.~ 3#e w+e =.5 e.3#@%f + ] #%w+$%F+' . W ! 5 > ",
"n@%%&%8#8#_.*%0$=%&%-%&%S$D+&.:#' R.4 ! f &$a i+..}@ %,.f u 4 ;%)@T | 3 ' . . > ' 4 w+4 ++> K.{.5 , 4 U f +#P#4 e @  .B+j.T { T ",
">%+$0.$.o y+b * o s @.X$D.4 D+a@*.> j a$a 5 ++d @.,%'%j j j . )%F w s a u > q.o.5 ( w 5 0 m.e {.! 4 5 j f C@!%! x d o y+H+{ ).~%",
">%e${ -+b.o H+s $ s . ..{%f m.w h 0 ! f v {.w *.. %$]%j N+b s ^%/./%]@7$1@+$;%5.:$Z y#8$:@^.]@A+]@(%_%:%<%^.[%a U m+* c !+& >.& ",
"}%<$s m m j.-+o ).* ).& {%#.. ++j W T j &.4@4@> a p+|%f > j 3 }@l f@P#O@)@1%p+6#2%P#M 7@P#R#3%4%5%+%l$#$P+e$,$k ^ _%6%}@v@1@7%(.",
"l@<$T 6 $.m H+s | N+m p 8%3 j #.p o ' e e k.w+e k.%$9%w+w @ m 6@C [+6 W > -.! e !.k.v @ U . i ,.* [+0@b W X$0% %a%!.=.b%c%d%=.Y.",
"M@,%J.>.0.` m m % H+` j.e%f%H+* g%| ++f a f a > { '@h%q.j h m <%f@c H++ ' d @ 3#D+3 w+k.0 $ ` ,.~ W * * *.J@M r a$#.k.e 2 &.i i%",
"r#,%E+a.i.0.q+o h.p j.<@8.p ` ,.o o -.> a 4@j%e 5 1@k%f#j + o l%m%U @.U 0 s j f f =.! w+a { s ~ h j [+'$N+l@G f#. 0 4 U S 4 W q ",
"R$n%q+>.j.a.I.Y#:+j./ a.o%= H+6 % o S > 0 p%L.S j 1@q%c s s V ]$)$4@a e c 6 . $ f v ' 4 f % 0.3 @ Q.W .+{ W#2#q.e.++k.' @ U ,.S ",
"r%s%x$t%t%u%v$]$K@K@v%A$w%B$}$U+x$U+x%+$7.3$0$A$y%{%f$x$z%t$A$A%v#B%C%[.D%t$E%F%B%G%H%*$<.|$I%J%a#K%|.s$L%M%7#:.+$N%C%<.w$C%7._.",
"N$Y@q.r.q r.5 2 k+m@*@O%P%r 4@; v+_#Q%%$R%> q.e$, D+S%< q#T%+.D+U%+.b@C@7@4@+.q#4@V%N$`+2 *@F$r D+Q%W%X%l.~.r#*@i%K.4 F#F [%p.Y%",
"0 A b ` >.b ` ` m P.+ P#Z%[+9$f e 0 j F%9%` @.]@# [+S m &@,.` >.` p o !+H%m P.p R B.[ $.`%a.o X.,.k.> ++~ T. &b & h 6 ) x$K+W d.",
"j .&m '.s J.E+,.j.q+j.@@> u ( ! > F#0 +$P%% v +&=.6 m+a.p m ,.'.J.b % @&k ` ` p W #&* = $&`%$&j.K#Z.&.a c j.)+(#W m m 1 |$3%v u ",
"& 2.% ,.'.a.& 0.p ;+j.f@! M.> 5 s.4 k._.F#W 5 1@%&j [+p [+T * * s  &[+<+1@J.'.m o 8 o b $.&&>._+b 5 ' @ b % p b ..x#(#p I+*&x#)+",
"p _%n >._+!+6 ` >.>.!+F ' 5 0 a v+++4 0$Y%u ++'@!.6 & n j d.{ ,.` s #.r+1@>.E+#.@.A.& m )+T.6 m s u m s j.+ ~ s H+m+[ *.=&)$).s ",
"h c#!+%+i.J./ i.-&$+i.D#v 5 L.:#5 o.a x%P%{ W <$;&h 9 % `  .% *.o 6 b   <$Q+  b * >&* s >+f . & . a | ,.c #.j i 6 V )+1 ,&T#f W ",
". 6%<@J.* $.H#J.m J.o [%3 +.0@..#.w f :.'&. e )&j ` ' % o ,.T N+>.o )+I@+$).& o ~$!&)+U c c ` m . v j !+W$b 6 *   L+{ *.'@!#[+U ",
"b ~&s i o % %+j.q+j.$.{&]&^.r$t.^&}$/&b+(&0$_&,+3$:&z%r$<&/$[&r%B$~&F%}&x.r$|&:&1&2&B@+ ~ 3 & | 4 5 j & % = N+| ..3&R *.%$4&+ c ",
"s v@s ,.o a.h+j.% '.<@'#l.s.v > m.+.:#l., 5&K *%6&C@F#o.7&R%&.8&2 q#l.Q%a@@%!$9&q#0&i #.m 6 ,.U j > j m a.>.` = H+s V { ]@S.b o ",
"Z#a&@+n+]$@+n+z+@+z+b&I @ : @.@.| V H+H+h e .@e$: p j o >$j [+& @.!+* =.T W o j #.A#H+J.>.6 * (+} S @.{ [+6 b j.a$6  +W 9.c&l%g+",
"9.9.s+#$d&#+}@_$^ ]@h@2@[+U s *.U S @.& . U *@<$j...+ W # v+w . . j | m.) s *.U 4@2+| * o m N+..[+u 5 #.1 ~ 6 b L+* b Q.^@e&7$f&",
"b h g&h+q+$.o z#g%U.= L W 0.* b $.{ >+@ f#v m@|.q+p b 6 2 . F+. a k.U 5 0 ' 4 ~.L.3+| $ m #.o { *.0 ~.U  .) N+3 h . V T =&)$J.a.",
"c { [+..j W o I.$.j.0.C@a 6 & & n + ~ Z%>+{.+@^ T { b @ Q.j S 3 r.+.D+5 w Y._#v m.x.@ @ { | W k.R.) 2 ++v U 6 H+~ 5  @5 =+S.h + ",
"n a$@ f ) + b f%0.h * U#v+-.! W @.. j h&f ~ J@6$T ,.' m '$j.` 6 h 0@5 U ` @ ~..+b S$s Y.T ..(#g&T m d.q.v *.% b [+@.X W .%(@V#o "};
